<svg width="50" height="50" viewBox="0 0 50 50" fill="none" xmlns="http://www.w3.org/2000/svg">
<g clip-path="url(#clip0_18_79)">
<path d="M13.3333 25L23.3333 33.3333L36.6666 16.6666M25 48.3333C21.9358 48.3333 18.9016 47.7298 16.0707 46.5571C13.2397 45.3845 10.6675 43.6658 8.5008 41.4991C6.3341 39.3324 4.61538 36.7602 3.44277 33.9292C2.27016 31.0983 1.66663 28.0641 1.66663 25C1.66663 21.9358 2.27016 18.9016 3.44277 16.0707C4.61538 13.2397 6.3341 10.6675 8.5008 8.5008C10.6675 6.3341 13.2397 4.61538 16.0707 3.44277C18.9016 2.27016 21.9358 1.66663 25 1.66663C31.1883 1.66663 37.1233 4.12495 41.4991 8.5008C45.875 12.8767 48.3333 18.8116 48.3333 25C48.3333 31.1883 45.875 37.1233 41.4991 41.4991C37.1233 45.875 31.1883 48.3333 25 48.3333Z" stroke="white" stroke-width="3.33333"/>
</g>
<defs>
<clipPath id="clip0_18_79">
<rect width="50" height="50" fill="white"/>
</clipPath>
</defs>
</svg>
