<svg width="31" height="30" viewBox="0 0 31 30" fill="none" xmlns="http://www.w3.org/2000/svg">
<g clip-path="url(#clip0_85_4)">
<path d="M15.5 0C18.2793 0 20.8424 0.68484 23.1895 2.05452C25.5366 3.4242 27.3949 5.28258 28.7646 7.62965C30.1343 9.97673 30.8192 12.5399 30.8192 15.3191C30.8192 18.6569 29.8451 21.6589 27.8969 24.3251C25.9488 26.9914 23.4322 28.8364 20.3471 29.8604C19.988 29.9269 19.7221 29.8803 19.5492 29.7207C19.3763 29.5612 19.2899 29.3617 19.2899 29.1223C19.2899 29.0824 19.2932 28.5738 19.2999 27.5964C19.3065 26.619 19.3098 25.7247 19.3098 24.9136C19.3098 23.6237 18.9641 22.6795 18.2726 22.0811C19.0306 22.0013 19.7121 21.8816 20.3172 21.7221C20.9222 21.5625 21.5472 21.3032 22.1922 20.9441C22.8371 20.5851 23.3757 20.143 23.8078 19.6177C24.24 19.0924 24.5924 18.3943 24.865 17.5233C25.1376 16.6523 25.2739 15.6516 25.2739 14.5213C25.2739 12.9388 24.7487 11.5691 23.6981 10.4122C24.1902 9.20213 24.137 7.84574 23.5386 6.34308C23.1662 6.2234 22.6277 6.29654 21.9229 6.5625C21.2181 6.82846 20.6064 7.12101 20.0878 7.44016L19.3298 7.91888C18.0931 7.57314 16.8165 7.40027 15.5 7.40027C14.1835 7.40027 12.9069 7.57314 11.6702 7.91888C11.4575 7.77261 11.1749 7.59308 10.8225 7.38032C10.4701 7.16755 9.9149 6.91157 9.15692 6.61237C8.39894 6.31316 7.83378 6.2234 7.46144 6.34308C6.86304 7.84574 6.80984 9.20213 7.30187 10.4122C6.25133 11.5691 5.72607 12.9388 5.72607 14.5213C5.72607 15.6516 5.86237 16.6489 6.13498 17.5133C6.40758 18.3777 6.75665 19.0758 7.18218 19.6077C7.60772 20.1396 8.14296 20.5851 8.7879 20.9441C9.43285 21.3032 10.0578 21.5625 10.6629 21.7221C11.268 21.8816 11.9495 22.0013 12.7075 22.0811C12.1888 22.5598 11.863 23.2447 11.7301 24.1356C11.4508 24.2686 11.1516 24.3684 10.8325 24.4348C10.5133 24.5013 10.1343 24.5346 9.69548 24.5346C9.25665 24.5346 8.82115 24.3916 8.38897 24.1057C7.95679 23.8198 7.58777 23.4043 7.28192 22.859C7.02926 22.4335 6.70679 22.0878 6.3145 21.8218C5.92221 21.5559 5.59309 21.3963 5.32713 21.3431L4.9282 21.2832C4.64894 21.2832 4.45612 21.3132 4.34974 21.373C4.24335 21.4328 4.21011 21.5093 4.25 21.6024C4.2899 21.6955 4.34974 21.7886 4.42952 21.8816C4.50931 21.9747 4.59575 22.0545 4.68883 22.121L4.82846 22.2207C5.12101 22.3537 5.41024 22.6064 5.69615 22.9787C5.98205 23.3511 6.19149 23.6902 6.32447 23.996L6.52394 24.4548C6.69681 24.9601 6.98937 25.369 7.4016 25.6815C7.81383 25.994 8.25931 26.1935 8.73804 26.2799C9.21676 26.3664 9.67886 26.4129 10.1243 26.4195C10.5698 26.4262 10.9388 26.4029 11.2314 26.3497L11.6902 26.2699C11.6902 26.7753 11.6935 27.3637 11.7001 28.0352C11.7068 28.7068 11.7101 29.0691 11.7101 29.1223C11.7101 29.3617 11.6237 29.5612 11.4508 29.7207C11.2779 29.8803 11.012 29.9269 10.6529 29.8604C7.56782 28.8364 5.0512 26.9914 3.10306 24.3251C1.15492 21.6589 0.180855 18.6569 0.180855 15.3191C0.180855 12.5399 0.865695 9.97673 2.23538 7.62965C3.60506 5.28258 5.46343 3.4242 7.81051 2.05452C10.1576 0.68484 12.7207 0 15.5 0ZM5.98538 22.0013C6.02527 21.9082 5.97873 21.8285 5.84575 21.762C5.71277 21.7221 5.62633 21.7354 5.58644 21.8019C5.54655 21.8949 5.59309 21.9747 5.72607 22.0412C5.84575 22.121 5.93218 22.1077 5.98538 22.0013ZM6.60373 22.6795C6.69681 22.613 6.68351 22.5066 6.56383 22.3604C6.43085 22.2407 6.32447 22.2207 6.24468 22.3005C6.1516 22.367 6.1649 22.4734 6.28458 22.6197C6.41756 22.7527 6.52394 22.7726 6.60373 22.6795ZM7.20213 23.5771C7.32181 23.484 7.32181 23.3577 7.20213 23.1981C7.09575 23.0253 6.98272 22.9854 6.86304 23.0785C6.74335 23.1449 6.74335 23.2646 6.86304 23.4375C6.98272 23.6104 7.09575 23.6569 7.20213 23.5771ZM8.0399 24.4149C8.14628 24.3085 8.11968 24.1822 7.96011 24.0359C7.80054 23.8763 7.66756 23.8564 7.56117 23.9761C7.44149 24.0824 7.46809 24.2088 7.64096 24.3551C7.80054 24.5146 7.93351 24.5346 8.0399 24.4149ZM9.17687 24.9136C9.21676 24.7673 9.13032 24.6609 8.91756 24.5944C8.71809 24.5412 8.59176 24.5878 8.53857 24.734C8.48538 24.8803 8.57181 24.9801 8.79788 25.0332C8.99734 25.113 9.12367 25.0731 9.17687 24.9136ZM10.4335 25.0133C10.4335 24.8404 10.3205 24.7673 10.0944 24.7939C9.88165 24.7939 9.77527 24.867 9.77527 25.0133C9.77527 25.1862 9.8883 25.2593 10.1144 25.2327C10.3271 25.2327 10.4335 25.1596 10.4335 25.0133ZM11.5904 24.8138C11.5638 24.6676 11.4442 24.6077 11.2314 24.6343C11.0186 24.6742 10.9255 24.7739 10.9521 24.9335C10.9787 25.0931 11.0984 25.1463 11.3112 25.0931C11.5239 25.0399 11.617 24.9468 11.5904 24.8138Z" fill="#333333"/>
</g>
<defs>
<clipPath id="clip0_85_4">
<rect width="30.64" height="30" fill="white" transform="translate(0.18)"/>
</clipPath>
</defs>
</svg>
