<svg width="31" height="30" viewBox="0 0 31 30" fill="none" xmlns="http://www.w3.org/2000/svg">
<g clip-path="url(#clip0_85_2)">
<path d="M20.5 15C20.5 13.6198 20.0117 12.4414 19.0352 11.4648C18.0586 10.4883 16.8802 10 15.5 10C14.1198 10 12.9414 10.4883 11.9648 11.4648C10.9883 12.4414 10.5 13.6198 10.5 15C10.5 16.3802 10.9883 17.5586 11.9648 18.5352C12.9414 19.5117 14.1198 20 15.5 20C16.8802 20 18.0586 19.5117 19.0352 18.5352C20.0117 17.5586 20.5 16.3802 20.5 15ZM23.1953 15C23.1953 17.1354 22.4466 18.9518 20.9492 20.4492C19.4518 21.9466 17.6354 22.6953 15.5 22.6953C13.3646 22.6953 11.5482 21.9466 10.0508 20.4492C8.55339 18.9518 7.80469 17.1354 7.80469 15C7.80469 12.8646 8.55339 11.0482 10.0508 9.55078C11.5482 8.05339 13.3646 7.30469 15.5 7.30469C17.6354 7.30469 19.4518 8.05339 20.9492 9.55078C22.4466 11.0482 23.1953 12.8646 23.1953 15ZM25.3047 6.99219C25.3047 7.48698 25.1289 7.91016 24.7773 8.26172C24.4258 8.61328 24.0026 8.78906 23.5078 8.78906C23.013 8.78906 22.5898 8.61328 22.2383 8.26172C21.8867 7.91016 21.7109 7.48698 21.7109 6.99219C21.7109 6.4974 21.8867 6.07422 22.2383 5.72266C22.5898 5.37109 23.013 5.19531 23.5078 5.19531C24.0026 5.19531 24.4258 5.37109 24.7773 5.72266C25.1289 6.07422 25.3047 6.4974 25.3047 6.99219ZM15.5 2.69531C15.4089 2.69531 14.9108 2.69206 14.0059 2.68555C13.1009 2.67904 12.4141 2.67904 11.9453 2.68555C11.4766 2.69206 10.8483 2.71159 10.0605 2.74414C9.27279 2.77669 8.60221 2.8418 8.04883 2.93945C7.49544 3.03711 7.02995 3.15755 6.65234 3.30078C6.0013 3.5612 5.42839 3.9388 4.93359 4.43359C4.4388 4.92839 4.0612 5.5013 3.80078 6.15234C3.65755 6.52995 3.53711 6.99544 3.43945 7.54883C3.3418 8.10221 3.27669 8.77279 3.24414 9.56055C3.21159 10.3483 3.19206 10.9766 3.18555 11.4453C3.17904 11.9141 3.17904 12.6009 3.18555 13.5059C3.19206 14.4108 3.19531 14.9089 3.19531 15C3.19531 15.0911 3.19206 15.5892 3.18555 16.4941C3.17904 17.3991 3.17904 18.0859 3.18555 18.5547C3.19206 19.0234 3.21159 19.6517 3.24414 20.4395C3.27669 21.2272 3.3418 21.8978 3.43945 22.4512C3.53711 23.0046 3.65755 23.4701 3.80078 23.8477C4.0612 24.4987 4.4388 25.0716 4.93359 25.5664C5.42839 26.0612 6.0013 26.4388 6.65234 26.6992C7.02995 26.8424 7.49544 26.9629 8.04883 27.0605C8.60221 27.1582 9.27279 27.2233 10.0605 27.2559C10.8483 27.2884 11.4766 27.3079 11.9453 27.3145C12.4141 27.321 13.1009 27.321 14.0059 27.3145C14.9108 27.3079 15.4089 27.3047 15.5 27.3047C15.5911 27.3047 16.0892 27.3079 16.9941 27.3145C17.8991 27.321 18.5859 27.321 19.0547 27.3145C19.5234 27.3079 20.1517 27.2884 20.9395 27.2559C21.7272 27.2233 22.3978 27.1582 22.9512 27.0605C23.5046 26.9629 23.9701 26.8424 24.3477 26.6992C24.9987 26.4388 25.5716 26.0612 26.0664 25.5664C26.5612 25.0716 26.9388 24.4987 27.1992 23.8477C27.3424 23.4701 27.4629 23.0046 27.5605 22.4512C27.6582 21.8978 27.7233 21.2272 27.7559 20.4395C27.7884 19.6517 27.8079 19.0234 27.8145 18.5547C27.821 18.0859 27.821 17.3991 27.8145 16.4941C27.8079 15.5892 27.8047 15.0911 27.8047 15C27.8047 14.9089 27.8079 14.4108 27.8145 13.5059C27.821 12.6009 27.821 11.9141 27.8145 11.4453C27.8079 10.9766 27.7884 10.3483 27.7559 9.56055C27.7233 8.77279 27.6582 8.10221 27.5605 7.54883C27.4629 6.99544 27.3424 6.52995 27.1992 6.15234C26.9388 5.5013 26.5612 4.92839 26.0664 4.43359C25.5716 3.9388 24.9987 3.5612 24.3477 3.30078C23.9701 3.15755 23.5046 3.03711 22.9512 2.93945C22.3978 2.8418 21.7272 2.77669 20.9395 2.74414C20.1517 2.71159 19.5234 2.69206 19.0547 2.68555C18.5859 2.67904 17.8991 2.67904 16.9941 2.68555C16.0892 2.69206 15.5911 2.69531 15.5 2.69531ZM30.5 15C30.5 17.9818 30.4674 20.0456 30.4023 21.1914C30.2721 23.8997 29.4648 25.9961 27.9805 27.4805C26.4961 28.9648 24.3997 29.7721 21.6914 29.9023C20.5456 29.9674 18.4818 30 15.5 30C12.5182 30 10.4544 29.9674 9.30859 29.9023C6.60026 29.7721 4.50391 28.9648 3.01953 27.4805C1.53516 25.9961 0.727865 23.8997 0.597656 21.1914C0.532552 20.0456 0.5 17.9818 0.5 15C0.5 12.0182 0.532552 9.95443 0.597656 8.80859C0.727865 6.10026 1.53516 4.00391 3.01953 2.51953C4.50391 1.03516 6.60026 0.227865 9.30859 0.0976562C10.4544 0.0325521 12.5182 0 15.5 0C18.4818 0 20.5456 0.0325521 21.6914 0.0976562C24.3997 0.227865 26.4961 1.03516 27.9805 2.51953C29.4648 4.00391 30.2721 6.10026 30.4023 8.80859C30.4674 9.95443 30.5 12.0182 30.5 15Z" fill="#333333"/>
</g>
<defs>
<clipPath id="clip0_85_2">
<rect width="30" height="30" fill="white" transform="translate(0.5)"/>
</clipPath>
</defs>
</svg>
