<svg width="25" height="24" viewBox="0 0 25 24" fill="none" xmlns="http://www.w3.org/2000/svg">
<path d="M2.75 7.125C2.75 6.504 3.254 6 3.875 6H9.875C10.496 6 11 6.504 11 7.125V10.875C11 11.496 10.496 12 9.875 12H3.875C3.57663 12 3.29048 11.8815 3.0795 11.6705C2.86853 11.4595 2.75 11.1734 2.75 10.875V7.125ZM14.75 8.625C14.75 8.004 15.254 7.5 15.875 7.5H21.125C21.746 7.5 22.25 8.004 22.25 8.625V16.875C22.25 17.496 21.746 18 21.125 18H15.875C15.5766 18 15.2905 17.8815 15.0795 17.6705C14.8685 17.4595 14.75 17.1734 14.75 16.875V8.625ZM4.25 16.125C4.25 15.504 4.754 15 5.375 15H10.625C11.246 15 11.75 15.504 11.75 16.125V18.375C11.75 18.996 11.246 19.5 10.625 19.5H5.375C5.07663 19.5 4.79048 19.3815 4.5795 19.1705C4.36853 18.9595 4.25 18.6734 4.25 18.375V16.125Z" stroke="black" stroke-width="1.5" stroke-linecap="round" stroke-linejoin="round"/>
</svg>
