<svg width="122" height="125" viewBox="0 0 122 125" fill="none" xmlns="http://www.w3.org/2000/svg">
<path d="M101.946 106.748L25.6963 20.8106C25.0127 20.0582 24.0673 19.6123 23.0649 19.5693C22.0626 19.5264 21.0841 19.89 20.3417 20.5814C19.5992 21.2727 19.1527 22.2359 19.0988 23.2623C19.0449 24.2887 19.388 25.2956 20.0538 26.0645L38.125 46.4307V62.5C38.1241 66.4791 39.112 70.393 40.9955 73.8727C42.8791 77.3525 45.5963 80.2837 48.8912 82.39C52.1861 84.4963 55.9501 85.7085 59.8286 85.9122C63.7071 86.116 67.5724 85.3047 71.0603 83.5547L76.3501 89.5117C71.6944 92.3031 66.3942 93.7665 61 93.75C52.9136 93.741 45.161 90.4457 39.443 84.5871C33.7251 78.7286 30.5089 70.7853 30.5 62.5C30.5 61.464 30.0984 60.4705 29.3834 59.7379C28.6684 59.0053 27.6987 58.5938 26.6875 58.5938C25.6764 58.5938 24.7067 59.0053 23.9917 59.7379C23.2767 60.4705 22.875 61.464 22.875 62.5C22.8866 72.1804 26.4012 81.5125 32.7391 88.6917C39.077 95.8709 47.788 100.387 57.1875 101.367V117.188C57.1875 118.224 57.5892 119.217 58.3042 119.95C59.0192 120.682 59.9889 121.094 61 121.094C62.0112 121.094 62.9809 120.682 63.6959 119.95C64.4109 119.217 64.8125 118.224 64.8125 117.188V101.362C70.7828 100.773 76.5284 98.7269 81.5685 95.3955L96.3038 111.997C96.6386 112.384 97.045 112.699 97.4994 112.923C97.9538 113.148 98.4472 113.278 98.951 113.305C99.4547 113.333 99.9589 113.258 100.434 113.085C100.91 112.912 101.346 112.643 101.72 112.296C102.093 111.948 102.396 111.528 102.609 111.06C102.823 110.591 102.944 110.084 102.965 109.568C102.986 109.051 102.907 108.536 102.732 108.051C102.557 107.566 102.29 107.122 101.946 106.743V106.748ZM61 78.125C56.9555 78.125 53.0766 76.4788 50.2166 73.5486C47.3567 70.6183 45.75 66.644 45.75 62.5V55.0244L65.6036 77.3975C64.1145 77.8801 62.5619 78.1255 61 78.125ZM88.4119 76.2158C90.4572 71.9481 91.514 67.2545 91.5 62.5C91.5 61.464 91.9017 60.4705 92.6167 59.7379C93.3317 59.0053 94.3014 58.5938 95.3125 58.5938C96.3237 58.5938 97.2934 59.0053 98.0084 59.7379C98.7234 60.4705 99.125 61.464 99.125 62.5C99.1409 68.4446 97.8183 74.3129 95.2601 79.6485C94.9467 80.3061 94.4594 80.8603 93.8536 81.2479C93.2477 81.6355 92.5479 81.841 91.8336 81.8408C91.2534 81.8412 90.6809 81.7042 90.1609 81.4405C89.2529 80.9851 88.5585 80.179 88.2306 79.1992C87.9026 78.2194 87.9678 77.1463 88.4119 76.2158ZM40.0313 21.9092C42.131 16.9747 45.8245 12.9312 50.4912 10.4582C55.1578 7.98519 60.5131 7.23347 65.6569 8.32936C70.8008 9.42524 75.4197 12.3019 78.7373 16.476C82.055 20.65 83.8692 25.867 83.875 31.25V62.5C83.8744 63.3155 83.833 64.1303 83.7511 64.9414C83.653 65.9057 83.2084 66.7981 82.5037 67.4451C81.7991 68.0922 80.8848 68.4476 79.9386 68.4424C79.8053 68.4496 79.6716 68.4496 79.5383 68.4424C78.5329 68.3341 77.6107 67.8211 76.9744 67.0163C76.3381 66.2114 76.0398 65.1806 76.1452 64.1504C76.1976 63.6133 76.2262 63.0567 76.2262 62.5098V31.25C76.2161 27.6661 75.0039 24.1947 72.7927 21.4177C70.5816 18.6407 67.5058 16.7269 64.0812 15.9972C60.6566 15.2675 57.0912 15.7663 53.9828 17.4098C50.8744 19.0533 48.4119 21.7418 47.0081 25.0244C46.8299 25.5254 46.5535 25.9837 46.1959 26.371C45.8384 26.7584 45.4071 27.0666 44.9289 27.2768C44.4506 27.487 43.9354 27.5946 43.4151 27.593C42.8947 27.5915 42.3801 27.4808 41.903 27.2678C41.426 27.0548 40.9965 26.7439 40.6411 26.3545C40.2858 25.965 40.012 25.5051 39.8366 25.0031C39.6613 24.5011 39.5881 23.9676 39.6215 23.4355C39.655 22.9034 39.7945 22.384 40.0313 21.9092Z" fill="#444444"/>
</svg>
