<svg width="126" height="126" viewBox="0 0 126 126" fill="none" xmlns="http://www.w3.org/2000/svg">
<path d="M63 86.4375C69.214 86.431 75.1717 83.9597 79.5657 79.5657C83.9597 75.1717 86.431 69.214 86.4375 63V31.75C86.4375 25.534 83.9682 19.5726 79.5728 15.1772C75.1774 10.7818 69.216 8.3125 63 8.3125C56.784 8.3125 50.8226 10.7818 46.4272 15.1772C42.0318 19.5726 39.5625 25.534 39.5625 31.75V63C39.569 69.214 42.0403 75.1717 46.4343 79.5657C50.8283 83.9597 56.786 86.431 63 86.4375ZM47.375 31.75C47.375 27.606 49.0212 23.6317 51.9515 20.7015C54.8817 17.7712 58.856 16.125 63 16.125C67.144 16.125 71.1183 17.7712 74.0485 20.7015C76.9788 23.6317 78.625 27.606 78.625 31.75V63C78.625 67.144 76.9788 71.1183 74.0485 74.0485C71.1183 76.9788 67.144 78.625 63 78.625C58.856 78.625 54.8817 76.9788 51.9515 74.0485C49.0212 71.1183 47.375 67.144 47.375 63V31.75ZM66.9062 101.867V117.688C66.9062 118.724 66.4947 119.717 65.7621 120.45C65.0296 121.182 64.036 121.594 63 121.594C61.964 121.594 60.9704 121.182 60.2379 120.45C59.5053 119.717 59.0938 118.724 59.0938 117.688V101.867C49.4631 100.887 40.5379 96.3709 34.0442 89.1917C27.5504 82.0125 23.9494 72.6804 23.9375 63C23.9375 61.964 24.3491 60.9704 25.0816 60.2379C25.8142 59.5053 26.8077 59.0938 27.8438 59.0938C28.8798 59.0938 29.8733 59.5053 30.6059 60.2379C31.3384 60.9704 31.75 61.964 31.75 63C31.75 71.288 35.0424 79.2366 40.9029 85.0971C46.7634 90.9576 54.712 94.25 63 94.25C71.288 94.25 79.2366 90.9576 85.0971 85.0971C90.9576 79.2366 94.25 71.288 94.25 63C94.25 61.964 94.6615 60.9704 95.3941 60.2379C96.1267 59.5053 97.1202 59.0938 98.1562 59.0938C99.1923 59.0938 100.186 59.5053 100.918 60.2379C101.651 60.9704 102.062 61.964 102.062 63C102.051 72.6804 98.4496 82.0125 91.9558 89.1917C85.4621 96.3709 76.5369 100.887 66.9062 101.867Z" fill="#444444"/>
</svg>
