<svg width="50" height="50" viewBox="0 0 50 50" fill="none" xmlns="http://www.w3.org/2000/svg">
<g clip-path="url(#clip0_18_68)">
<path d="M18.3333 23.3333H31.6667V20H18.3333V23.3333ZM33.3333 25V35H36.6667V25H33.3333ZM31.6667 36.6667H18.3333V40H31.6667V36.6667ZM16.6667 35V25H13.3333V35H16.6667ZM18.3333 36.6667C17.8913 36.6667 17.4674 36.4911 17.1548 36.1785C16.8423 35.866 16.6667 35.442 16.6667 35H13.3333C13.3333 36.3261 13.8601 37.5979 14.7978 38.5355C15.7355 39.4732 17.0072 40 18.3333 40V36.6667ZM33.3333 35C33.3333 35.442 33.1577 35.866 32.8452 36.1785C32.5326 36.4911 32.1087 36.6667 31.6667 36.6667V40C32.9927 40 34.2645 39.4732 35.2022 38.5355C36.1399 37.5979 36.6667 36.3261 36.6667 35H33.3333ZM31.6667 23.3333C32.1087 23.3333 32.5326 23.5089 32.8452 23.8215C33.1577 24.134 33.3333 24.558 33.3333 25H36.6667C36.6667 23.6739 36.1399 22.4021 35.2022 21.4645C34.2645 20.5268 32.9927 20 31.6667 20V23.3333ZM18.3333 20C17.0072 20 15.7355 20.5268 14.7978 21.4645C13.8601 22.4021 13.3333 23.6739 13.3333 25H16.6667C16.6667 24.558 16.8423 24.134 17.1548 23.8215C17.4674 23.5089 17.8913 23.3333 18.3333 23.3333V20ZM20 21.6667V18.3333H16.6667V21.6667H20ZM30 18.3333V21.6667H33.3333V18.3333H30ZM25 13.3333C26.3261 13.3333 27.5979 13.8601 28.5355 14.7978C29.4732 15.7355 30 17.0072 30 18.3333H33.3333C33.3333 16.1232 32.4554 14.0036 30.8926 12.4408C29.3298 10.878 27.2101 10 25 10V13.3333ZM20 18.3333C20 17.0072 20.5268 15.7355 21.4645 14.7978C22.4021 13.8601 23.6739 13.3333 25 13.3333V10C22.7899 10 20.6702 10.878 19.1074 12.4408C17.5446 14.0036 16.6667 16.1232 16.6667 18.3333H20ZM3.33333 25C3.33333 19.2536 5.61606 13.7426 9.67935 9.67935C13.7426 5.61606 19.2536 3.33333 25 3.33333V0C18.3696 0 12.0107 2.63392 7.32233 7.32233C2.63392 12.0107 0 18.3696 0 25H3.33333ZM25 46.6667C19.2536 46.6667 13.7426 44.3839 9.67935 40.3206C5.61606 36.2574 3.33333 30.7464 3.33333 25H0C0 31.6304 2.63392 37.9893 7.32233 42.6777C12.0107 47.3661 18.3696 50 25 50V46.6667ZM46.6667 25C46.6667 27.8453 46.1062 30.6628 45.0174 33.2915C43.9285 35.9202 42.3326 38.3087 40.3206 40.3206C38.3087 42.3326 35.9202 43.9285 33.2915 45.0174C30.6628 46.1062 27.8453 46.6667 25 46.6667V50C31.6304 50 37.9893 47.3661 42.6777 42.6777C47.3661 37.9893 50 31.6304 50 25H46.6667ZM50 25C50 18.3696 47.3661 12.0107 42.6777 7.32233C37.9893 2.63392 31.6304 0 25 0V3.33333C27.8453 3.33333 30.6628 3.89376 33.2915 4.98261C35.9202 6.07146 38.3087 7.66742 40.3206 9.67935C42.3326 11.6913 43.9285 14.0798 45.0174 16.7085C46.1062 19.3372 46.6667 22.1547 46.6667 25H50Z" fill="white"/>
</g>
<defs>
<clipPath id="clip0_18_68">
<rect width="50" height="50" fill="white"/>
</clipPath>
</defs>
</svg>
