<svg width="25" height="24" viewBox="0 0 25 24" fill="none" xmlns="http://www.w3.org/2000/svg">
<g clip-path="url(#clip0_7_70)">
<path d="M12.512 2.25C13.246 2.258 13.977 2.343 14.694 2.503C14.8465 2.53705 14.9846 2.6179 15.089 2.73426C15.1933 2.85062 15.2587 2.99667 15.276 3.152L15.446 4.679C15.47 4.89428 15.5442 5.10093 15.6626 5.28231C15.7811 5.46368 15.9404 5.61473 16.1279 5.72329C16.3153 5.83185 16.5256 5.89489 16.7419 5.90735C16.9582 5.9198 17.1743 5.88132 17.373 5.795L18.773 5.18C18.9152 5.11735 19.0734 5.10044 19.2257 5.13161C19.378 5.16278 19.5168 5.2405 19.623 5.354C20.6351 6.43516 21.389 7.73163 21.828 9.146C21.8739 9.29474 21.8723 9.45406 21.8236 9.60189C21.7749 9.74971 21.6813 9.87871 21.556 9.971L20.315 10.887C20.1402 11.0152 19.998 11.1827 19.9 11.3761C19.8019 11.5695 19.7509 11.7832 19.7509 12C19.7509 12.2168 19.8019 12.4305 19.9 12.6239C19.998 12.8173 20.1402 12.9848 20.315 13.113L21.558 14.028C21.6835 14.1204 21.7772 14.2495 21.8259 14.3976C21.8747 14.5456 21.8761 14.7051 21.83 14.854C21.3913 16.2683 20.6377 17.5647 19.626 18.646C19.52 18.7595 19.3814 18.8372 19.2293 18.8686C19.0773 18.8999 18.9192 18.8833 18.777 18.821L17.371 18.204C17.1726 18.117 16.9565 18.0779 16.7402 18.09C16.5239 18.102 16.3134 18.1648 16.1259 18.2733C15.9384 18.3817 15.779 18.5328 15.6607 18.7143C15.5424 18.8958 15.4685 19.1026 15.445 19.318L15.275 20.844C15.258 20.9975 15.1941 21.142 15.0919 21.2578C14.9897 21.3736 14.8542 21.4551 14.704 21.491C13.2556 21.8363 11.7464 21.8363 10.298 21.491C10.1476 21.4553 10.0119 21.3739 9.90953 21.2581C9.80714 21.1423 9.74304 20.9976 9.726 20.844L9.557 19.32C9.53245 19.1053 9.4579 18.8994 9.33934 18.7187C9.22077 18.5381 9.06149 18.3877 8.8743 18.2798C8.6871 18.1718 8.47719 18.1093 8.26145 18.0972C8.0457 18.0851 7.83011 18.1237 7.632 18.21L6.226 18.826C6.08366 18.8885 5.9254 18.9053 5.77312 18.8739C5.62084 18.8426 5.48207 18.7647 5.376 18.651C4.36413 17.5685 3.61091 16.2706 3.173 14.855C3.1269 14.7061 3.12832 14.5466 3.17706 14.3986C3.22581 14.2505 3.31946 14.1214 3.445 14.029L4.688 13.113C4.86285 12.9848 5.00504 12.8173 5.10305 12.6239C5.20106 12.4305 5.25214 12.2168 5.25214 12C5.25214 11.7832 5.20106 11.5695 5.10305 11.3761C5.00504 11.1827 4.86285 11.0152 4.688 10.887L3.445 9.973C3.31946 9.88065 3.22581 9.75148 3.17706 9.60345C3.12832 9.45542 3.1269 9.29588 3.173 9.147C3.61204 7.73263 4.36593 6.43616 5.378 5.355C5.48419 5.24149 5.62301 5.16378 5.77529 5.13261C5.92756 5.10144 6.08576 5.11835 6.228 5.181L7.628 5.796C7.82702 5.88227 8.0435 5.92066 8.26005 5.90809C8.4766 5.89551 8.68718 5.83232 8.87487 5.7236C9.06257 5.61487 9.22215 5.46363 9.34079 5.28204C9.45943 5.10045 9.53383 4.89356 9.558 4.678L9.728 3.152C9.74516 2.99635 9.81061 2.84998 9.91516 2.73341C10.0197 2.61684 10.1581 2.53592 10.311 2.502C11.027 2.34333 11.7607 2.25933 12.512 2.25ZM12.512 3.75C12.0584 3.75482 11.6057 3.79393 11.158 3.867L11.048 4.844C10.998 5.2933 10.8431 5.72457 10.5958 6.10305C10.3486 6.48152 10.0159 6.79662 9.62454 7.02294C9.23319 7.24927 8.79415 7.38049 8.34279 7.40603C7.89143 7.43158 7.44039 7.35073 7.026 7.17L6.127 6.776C5.55554 7.46996 5.10062 8.25215 4.78 9.092L5.577 9.679C5.94146 9.94646 6.23784 10.296 6.44215 10.6992C6.64647 11.1025 6.75299 11.5482 6.75308 12.0002C6.75318 12.4523 6.64686 12.8981 6.44272 13.3014C6.23857 13.7048 5.94235 14.0544 5.578 14.322L4.779 14.91C5.099 15.752 5.555 16.536 6.127 17.232L7.032 16.835C7.44549 16.6545 7.89559 16.5735 8.34608 16.5987C8.79656 16.6239 9.23483 16.7545 9.62562 16.98C10.0164 17.2055 10.3488 17.5196 10.596 17.897C10.8432 18.2745 10.9984 18.7047 11.049 19.153L11.158 20.137C12.048 20.287 12.957 20.287 13.846 20.137L13.956 19.153C14.0056 18.704 14.1601 18.2729 14.407 17.8947C14.654 17.5164 14.9865 17.2015 15.3776 16.9755C15.7687 16.7495 16.2075 16.6186 16.6586 16.5935C17.1096 16.5684 17.5602 16.6498 17.974 16.831L18.878 17.227C19.45 16.5325 19.9053 15.7496 20.226 14.909L19.428 14.321C19.0635 14.0535 18.7672 13.704 18.5628 13.3008C18.3585 12.8975 18.252 12.4518 18.2519 11.9998C18.2518 11.5477 18.3581 11.1019 18.5623 10.6986C18.7664 10.2952 19.0627 9.94562 19.427 9.678L20.224 9.091C19.9032 8.25073 19.4479 7.46819 18.876 6.774L17.979 7.167C17.5648 7.34835 17.1137 7.42974 16.6622 7.40461C16.2106 7.37948 15.7714 7.24853 15.3798 7.02233C14.9882 6.79613 14.6554 6.48103 14.408 6.10245C14.1607 5.72388 14.0059 5.29245 13.956 4.843L13.847 3.867C13.4059 3.79493 12.959 3.75582 12.512 3.75ZM12.5 8.25C13.4946 8.25 14.4484 8.64509 15.1517 9.34835C15.8549 10.0516 16.25 11.0054 16.25 12C16.25 12.9946 15.8549 13.9484 15.1517 14.6517C14.4484 15.3549 13.4946 15.75 12.5 15.75C11.5054 15.75 10.5516 15.3549 9.84835 14.6517C9.14509 13.9484 8.75 12.9946 8.75 12C8.75 11.0054 9.14509 10.0516 9.84835 9.34835C10.5516 8.64509 11.5054 8.25 12.5 8.25ZM12.5 9.75C11.9033 9.75 11.331 9.98705 10.909 10.409C10.4871 10.831 10.25 11.4033 10.25 12C10.25 12.5967 10.4871 13.169 10.909 13.591C11.331 14.0129 11.9033 14.25 12.5 14.25C13.0967 14.25 13.669 14.0129 14.091 13.591C14.5129 13.169 14.75 12.5967 14.75 12C14.75 11.4033 14.5129 10.831 14.091 10.409C13.669 9.98705 13.0967 9.75 12.5 9.75Z" fill="black"/>
</g>
<defs>
<clipPath id="clip0_7_70">
<rect width="24" height="24" fill="white" transform="translate(0.5)"/>
</clipPath>
</defs>
</svg>
